<?xml version="1.0" standalone="no"?>
<!DOCTYPE svg PUBLIC "-//W3C//DTD SVG 20010904//EN"
 "http://www.w3.org/TR/2001/REC-SVG-20010904/DTD/svg10.dtd">
<svg version="1.0" xmlns="http://www.w3.org/2000/svg"
 width="32.000000pt" height="32.000000pt" viewBox="0 0 32.000000 32.000000"
 preserveAspectRatio="xMidYMid meet">

<g transform="translate(0.000000,32.000000) scale(0.100000,-0.100000)"
fill="#000000" stroke="none">
<path d="M92 304 c-107 -55 -121 -198 -26 -271 96 -73 238 -10 251 111 14 119
-120 214 -225 160z m123 -28 c42 -18 75 -69 75 -117 0 -41 -21 -76 -39 -64 -9
5 -10 10 -2 18 16 16 13 63 -4 77 -9 8 -28 10 -50 6 -34 -7 -35 -6 -25 19 7
18 6 25 -2 25 -6 0 -9 3 -5 6 9 9 -21 36 -33 29 -5 -3 -10 -1 -10 4 0 16 55
13 95 -3z m-148 -59 c-6 -17 21 -67 36 -67 6 0 4 -5 -5 -11 -10 -5 -18 -16
-18 -24 0 -22 -17 -27 -34 -9 -19 18 -21 72 -5 108 11 24 34 26 26 3z m83 -3
c0 -2 -14 -4 -31 -4 -16 0 -28 4 -25 9 5 8 56 3 56 -5z m16 -59 c-1 -25 -7
-31 -19 -19 -6 6 9 44 17 44 2 0 3 -11 2 -25z m39 -14 c-3 -6 -11 -8 -17 -5
-6 4 -5 9 3 15 16 10 23 4 14 -10z m39 -2 c-6 -11 -24 -2 -24 11 0 5 7 7 15 4
8 -4 12 -10 9 -15z m-59 -29 c3 -5 2 -17 -3 -26 -8 -14 -10 -12 -14 10 -5 26
5 35 17 16z m-85 -40 c0 -11 -4 -20 -9 -20 -6 0 -9 9 -8 20 1 11 5 20 9 20 4
0 8 -9 8 -20z m125 0 c18 -8 17 -9 -7 -9 -16 -1 -28 4 -28 9 0 12 8 12 35 0z"/>
</g>
</svg>
